<?xml version="1.0" encoding="utf-8"?>
<!-- Generator: Adobe Illustrator 22.0.0, SVG Export Plug-In . SVG Version: 6.00 Build 0)  -->
<svg version="1.1" id="Capa_1" xmlns="http://www.w3.org/2000/svg" xmlns:xlink="http://www.w3.org/1999/xlink" x="0px" y="0px"
	 viewBox="0 0 512 383.7" style="enable-background:new 0 0 512 383.7;" xml:space="preserve">
<style type="text/css">
	.st0{fill:#CFD8DC;}
	.st1{fill:#FAFAFA;}
	.st2{fill:#EEEEEE;}
	.st3{fill:#ECEFF1;}
	.st4{fill:#F44336;}
</style>
<path class="st0" d="M443.5,353.6l-181.3-128c-3.7-2.6-8.6-2.6-12.3,0l-181.3,128c-2.8,2-4.5,5.3-4.5,8.7V373
	c0,5.9,4.8,10.7,10.7,10.7h362.7c5.9,0,10.7-4.8,10.7-10.7v-10.7C448,358.9,446.3,355.6,443.5,353.6z"/>
<path class="st1" d="M262.2,225.6L80.8,97.6c-4.8-3.4-11.5-2.3-14.9,2.5c-1.3,1.8-2,4-2,6.2v256c0,5.9,4.8,10.7,10.6,10.7
	c2.2,0,4.4-0.7,6.2-2l181.3-128c4.8-3.4,6-10.1,2.6-14.9C264,227.2,263.2,226.3,262.2,225.6L262.2,225.6z"/>
<path class="st2" d="M442.2,96.9c-3.5-1.8-7.8-1.5-11.1,0.7l-181.3,128c-4.8,3.4-6,10.1-2.6,14.9c0.7,1,1.6,1.9,2.6,2.6l181.3,128
	c4.8,3.4,11.5,2.3,14.9-2.5c1.3-1.8,2-4,2-6.2v-256C448,102.3,445.8,98.7,442.2,96.9z"/>
<path class="st3" d="M468.8,7c-1.4-4.4-5.5-7.3-10.1-7.3H53.3c-5.9,0-10.7,4.8-10.7,10.7c0,3.4,1.6,6.5,4.3,8.5l202.7,149.3
	c3.8,2.8,8.9,2.8,12.7,0L464.9,18.9C468.6,16.2,470.2,11.4,468.8,7z"/>
<path class="st4" d="M458.7-0.3c-2.3,0-4.6,0.7-6.4,2.1L256,146.4L59.7,1.8c-1.8-1.4-4.1-2.1-6.4-2.1C23.9-0.3,0,23.5,0,53v277.3
	c0,29.5,23.9,53.3,53.3,53.3h21.3c5.9,0,10.7-4.8,10.7-10.7V126.9l164.5,116.1c3.7,2.6,8.6,2.6,12.3,0l164.5-116.1V373
	c0,5.9,4.8,10.7,10.7,10.7h21.3c29.5,0,53.3-23.9,53.3-53.3V53C512,23.5,488.1-0.3,458.7-0.3z"/>
</svg>
